<svg xmlns="http://www.w3.org/2000/svg" xmlns:xlink="http://www.w3.org/1999/xlink" width="218" height="63"><defs><path id="a" d="M0 .606h51.56v62.357H0z"/><path id="c" d="M42.521.606L25.78 18.447 9.039.606H0V8.3l17.65 18.81L3.3 42.405c1.69 3.718 3.993 7.085 6.81 10.07l15.67-16.7 15.67 16.7c2.817-2.984 5.12-6.352 6.81-10.07L33.91 27.112l17.65-18.81V.605h-9.039z"/><path id="e" d="M.091.313h37.958v19.613H.091z"/></defs><g fill="none" fill-rule="evenodd"><mask id="b" fill="#fff"><use xlink:href="#a"/></mask><path fill="#FFFFFE" d="M33.91 27.111l14.35 15.295c2.137-4.702 3.3-9.957 3.3-15.69V8.3L33.91 27.111zm14.348 15.297zM4.435 44.666c.115.211.229.424.348.632-.119-.208-.233-.42-.348-.632zm.75 1.315c.107.178.211.358.32.534-.109-.176-.213-.356-.32-.534zm.32.534zm-.722-1.217c.13.23.267.457.403.683-.136-.226-.272-.453-.403-.683zm-1.482-2.893c.054.118.113.234.169.351-.056-.118-.11-.238-.164-.357l-.005.006zM0 8.301v18.415c0 5.732 1.17 10.983 3.306 15.683L17.65 27.111 0 8.301zM4.105 44.05c.107.206.219.411.33.617-.111-.206-.223-.41-.33-.617zm-.336-.67zm-.3-.623zM42.522.606H9.04l16.74 17.841L42.522.606zM10.11 52.476c4.062 4.303 9.194 7.808 15.13 10.392 0 0 .284.132.54.132.256 0 .54-.132.54-.132 5.936-2.584 11.068-6.088 15.13-10.392l-15.67-16.7-15.67 16.7z" mask="url(#b)"/><mask id="d" fill="#fff"><use xlink:href="#c"/></mask><path stroke="#FFFFFE" stroke-width=".86" d="M25.78 63c-.256 0-.54-.132-.54-.132C9.983 56.228 0 43.521 0 26.716V.606h51.56v26.11c0 16.805-9.982 29.511-25.24 36.152 0 0-.284.132-.54.132z" mask="url(#d)"/><path fill="#FFFFFE" d="M67.898 17.545c.143 3 2.008 3.965 4.842 3.965 2.009 0 4.089-.714 4.089-2.608 0-2.251-3.659-2.68-7.353-3.716-3.658-1.035-7.496-2.679-7.496-7.36 0-5.572 5.63-7.751 10.437-7.751 5.093 0 10.223 2.465 10.258 8.217h-6.671c.107-2.322-2.08-3.073-4.125-3.073-1.435 0-3.228.5-3.228 2.179 0 1.965 3.694 2.323 7.424 3.358 3.695 1.037 7.426 2.751 7.426 7.36 0 6.466-5.524 8.539-11.156 8.539-5.882 0-11.083-2.573-11.118-9.11h6.671m28.623-6.038h-3.767v8.432c0 1.464.862 1.785 2.189 1.785.502 0 1.04-.071 1.578-.071v4.466c-1.112.035-2.223.178-3.336.178-5.2 0-6.528-1.5-6.528-6.538v-8.252h-3.084v-3.93h3.084v-5.61h6.097v5.61h3.767v3.93m18.19 5.108h5.812l-2.835-8.93h-.07l-2.906 8.93zM114.282.61h6.78l9.576 25.509h-6.959l-1.577-4.574h-8.931l-1.615 4.574h-6.85L114.28.609zM130.772 26.119h6.098V.61h-6.098zM145.14 16.651c0 3.25.932 5.36 3.693 5.36 2.726 0 3.659-2.824 3.659-5.36 0-2.357-.933-4.965-3.622-4.965-1.65 0-3.73 1.143-3.73 4.965zM139.256.61h6.097v9.003h.072c1.255-1.715 3.014-2.572 5.308-2.572 5.273 0 7.856 4.572 7.856 9.396 0 5.216-2.475 10.218-8.322 10.218-2.151 0-3.946-.929-5.129-2.68h-.072v2.144h-5.81V.609zm28.808 22.293c2.905 0 3.873-1.643 3.73-5.465-.86.535-2.438.642-3.766.999-1.363.322-2.51.894-2.51 2.359 0 1.5 1.183 2.107 2.546 2.107zm-7.89-9.61c.107-2.43 1.254-4.001 2.904-4.966 1.65-.93 3.803-1.286 5.919-1.286 4.412 0 8.68.964 8.68 6.216v8.11c0 1.572 0 3.287.717 4.752h-6.133c-.215-.572-.286-1.143-.359-1.751-1.578 1.643-3.91 2.287-6.133 2.287-3.552 0-6.35-1.787-6.35-5.61 0-6.037 6.6-5.573 10.834-6.43 1.04-.214 1.614-.572 1.614-1.715 0-1.393-1.687-1.929-2.942-1.929-1.686 0-2.761.75-3.049 2.321h-5.703z"/><g transform="translate(179.927 6.728)"><mask id="f" fill="#fff"><use xlink:href="#e"/></mask><path fill="#FFFFFE" d="M.09.848h5.92v2.537h.07C7.194 1.492 9.705.313 11.93.313c6.204 0 6.707 4.501 6.707 7.18v11.898h-6.098v-8.968c0-2.536.287-5.109-3.05-5.109-2.295 0-3.3 1.93-3.3 3.966v10.11H.092V.849m25.731 12.433c0 .929.394 1.608 1.005 2.072.573.43 1.398.643 2.258.643 1.184 0 2.87-.5 2.87-1.965 0-1.429-1.901-1.714-2.977-1.964-3.838-.965-8.644-1.072-8.644-6.073 0-4.466 4.842-5.681 8.501-5.681 4.089 0 8.356 1.179 8.572 6.002h-5.631c0-.786-.287-1.286-.789-1.608-.501-.321-1.184-.464-1.937-.464-1.004 0-2.619.107-2.619 1.393 0 1.75 4.09 2.072 6.887 2.68 3.767.75 4.735 3.465 4.735 5.001 0 4.966-4.735 6.61-8.931 6.61-4.412 0-8.932-1.466-9.11-6.646h5.81" mask="url(#f)"/></g><path fill="#FFFFFE" d="M67.587 36.915c0-2.03-.412-2.907-1.685-2.907-1.43 0-1.764 1.424-1.764 5.366 0 4.216.588 4.976 1.802 4.976 1.02 0 1.763-.528 1.763-3.532h2.822c0 3.004-.744 5.6-4.447 5.6-4.232 0-4.761-3.005-4.761-7.239 0-4.235.529-7.24 4.76-7.24 4.037 0 4.33 2.946 4.33 4.976h-2.82m3.802 9.23h2.704V35.646h-2.704v10.5zm0-11.786h2.704v-2.304h-2.704v2.304zm4.682-1.718h2.703v3.005h1.568v1.835h-1.568v5.678c0 .82.176 1.152.96 1.152.216 0 .432-.02.608-.04v1.874c-.588.058-1.137.118-1.764.118-2.115 0-2.507-.644-2.507-2.772v-6.01h-1.372v-1.835h1.372v-3.005m5.078 14.929c.235.04.47.059.705.059 1 0 1.372-.546 1.45-1.484l-2.958-10.499h2.821l1.567 7.26h.04l1.372-7.26h2.703l-2.547 9.797c-.94 3.63-1.548 4.138-4.056 4.138H81.15V47.57m15.386-10.987l.333.468.509-.428c.627-.508.881-1.035.881-1.523 0-.76-.509-1.17-1.234-1.17-.666 0-1.195.41-1.195 1.131 0 .37.235.897.706 1.522zm-.275 3.455c-1.058.82-1.43 1.503-1.43 2.36 0 .879.686 1.835 1.96 1.835.763 0 1.35-.293 1.822-.877l-2.352-3.318zm3.978 1.521c.293-.605.49-1.541.49-2.108h2.429c0 1.503-.588 2.928-1.43 4.119l1.84 2.575h-2.997l-.783-1.073c-.706.84-1.998 1.347-3.37 1.347-3.547 0-4.29-2.46-4.29-4.02 0-1.62 1.077-2.948 2.82-4.02l-.49-.722c-.783-1.151-.94-1.718-.94-2.518 0-1.815 1.47-2.926 3.565-2.926 2.391 0 3.488 1.287 3.488 2.907 0 1.386-.783 2.458-2.43 3.61l2.098 2.83zm10.891 2.518h1.252c1.96 0 2.352-1.229 2.352-5.016 0-3.16-.254-4.78-2.41-4.78h-1.194v9.796zm-2.822-11.864h4.623c3.92 0 4.625 2.672 4.625 6.77 0 4.939-1.06 7.162-4.801 7.162h-4.447V32.213zm10.335 13.932h2.705V35.646h-2.705v10.5zm0-11.786h2.705v-2.304h-2.705v2.304zm5.91 8.351v.351c0 .918.49 1.524 1.41 1.524.824 0 1.371-.41 1.371-1.25 0-.683-.45-.995-.978-1.19l-1.9-.683c-1.49-.527-2.254-1.444-2.254-2.927 0-1.737 1.097-3.161 3.88-3.161 2.449 0 3.604 1.092 3.604 2.986v.428h-2.429c0-1.053-.314-1.58-1.196-1.58-.685 0-1.273.39-1.273 1.131 0 .508.274.937 1.175 1.23l1.627.547c1.704.565 2.33 1.425 2.33 3.005 0 2.204-1.645 3.298-3.917 3.298-3.037 0-3.88-1.328-3.88-3.337v-.372h2.43m6.797-10.07h2.704v3.006h1.567v1.835h-1.567v5.678c0 .82.177 1.152.96 1.152.215 0 .43-.02.607-.04v1.874c-.587.058-1.137.118-1.763.118-2.116 0-2.508-.644-2.508-2.772v-6.01h-1.372v-1.835h1.372v-3.005m4.782 3.005h2.586v1.405h.038c.55-1.014 1.314-1.677 2.431-1.677.156 0 .333.02.49.038v2.576c-.275-.02-.569-.039-.843-.039-.94 0-1.998.488-1.998 1.894v6.302h-2.704V35.646m6.111 10.5h2.705v-10.5h-2.705v10.5zm0-11.787h2.705v-2.304h-2.705v2.304zm8.876 5.073c0-1.014-.197-2.107-1.216-2.107-1.332 0-1.547 1.17-1.547 3.591 0 2.595.235 3.669 1.45 3.669.9 0 1.313-.763 1.313-2.46h2.586c0 2.752-1.156 4.294-4.017 4.294-2.704 0-4.036-1.307-4.036-5.523 0-4.313 1.783-5.522 4.271-5.522s3.782 1.58 3.782 4.058h-2.586m4.073-6.791h2.702v3.005h1.568v1.835h-1.568v5.678c0 .82.177 1.152.962 1.152.214 0 .431-.02.606-.04v1.874c-.587.058-1.137.118-1.762.118-2.116 0-2.508-.644-2.508-2.772v-6.01h-1.373v-1.835h1.373v-3.005m15.605 4.274c0-2.03-.41-2.907-1.685-2.907-1.43 0-1.763 1.424-1.763 5.366 0 4.216.588 4.976 1.802 4.976 1.018 0 1.763-.528 1.763-3.532h2.823c0 3.004-.746 5.6-4.448 5.6-4.233 0-4.761-3.005-4.761-7.239 0-4.235.528-7.24 4.76-7.24 4.037 0 4.33 2.946 4.33 4.976h-2.821m7.758 7.67c1.096 0 1.449-1.074 1.449-3.69 0-2.614-.353-3.687-1.45-3.687-1.332 0-1.45 1.54-1.45 3.688 0 2.146.118 3.689 1.45 3.689zm0-9.211c3.251-.06 4.152 1.872 4.152 5.522 0 3.59-1.057 5.523-4.152 5.523-3.253.058-4.154-1.874-4.154-5.523 0-3.59 1.058-5.522 4.154-5.522zm10.396 9.543h-.04c-.568 1.033-1.547 1.502-2.683 1.502-1.685 0-2.684-.916-2.684-2.986v-7.787h2.703v7.24c0 1.054.352 1.464 1.156 1.464.921 0 1.43-.566 1.43-1.736v-6.968h2.704v10.5h-2.586v-1.23m3.757-9.27h2.585v1.23h.04c.57-1.033 1.547-1.502 2.684-1.502 1.686 0 2.684.916 2.684 2.986v7.785h-2.703v-7.24c0-1.053-.352-1.463-1.155-1.463-.923 0-1.432.567-1.432 1.737v6.966h-2.703V35.646m14.24 3.786c0-1.014-.197-2.107-1.216-2.107-1.331 0-1.548 1.17-1.548 3.591 0 2.595.235 3.669 1.45 3.669.902 0 1.314-.763 1.314-2.46h2.585c0 2.752-1.155 4.294-4.016 4.294-2.704 0-4.035-1.307-4.035-5.523 0-4.313 1.782-5.522 4.27-5.522 2.488 0 3.78 1.58 3.78 4.058h-2.584m3.41 6.713h2.705V35.646h-2.705v10.5zm0-11.786h2.705v-2.304h-2.705v2.304zM214.549 46.145h2.705V32.213h-2.705z"/></g></svg>