<svg xmlns="http://www.w3.org/2000/svg" xmlns:xlink="http://www.w3.org/1999/xlink" width="355" height="62"><defs><path id="a" d="M.043.073h106.615v60.735H.043z"/><path id="c" d="M.03.457H97.3v58.511H.03z"/></defs><g fill="none" fill-rule="evenodd"><path fill="#FFF" d="M31.318 9.16c4.137.259 7.908 1.573 11.29 3.994.508.363.987.766 1.48 1.151a59.526 59.526 0 0 1-3.76 3.907c-2.602-2.223-5.77-3.369-9.139-3.676-.137-1.353.096-2.694.075-4.049-.007-.441-.078-.89.054-1.328m20.341 22.436c-.234 4.93-2.047 9.496-5.215 13.264-1.376-1.178-2.738-2.384-4.01-3.672.159-.182.488-.478.633-.67 1.964-2.587 3.021-5.735 3.196-8.983 1.788-.075 3.608-.014 5.396.061m-5.406-15.089c2.08 2.28 3.505 4.935 4.437 7.869.437 1.374.725 2.782.862 4.22-.387.177-.79.053-1.182.048-1.416-.017-2.835.087-4.25-.05-.391-3.087-1.578-5.823-3.575-8.2a88.897 88.897 0 0 1 3.708-3.887m-32.86 28.006c-1.187-1.616-2.284-3.285-3.066-5.147-1.053-2.508-1.65-5.117-1.732-7.841 1.779-.097 3.54-.209 5.32-.111.2 3.378 1.263 6.554 3.34 9.24-1.097 1.3-2.317 2.484-3.484 3.718a.417.417 0 0 1-.377.14m2.447-29.96c3.564-3.069 7.656-4.896 12.341-5.334.093 1.802.1 3.605-.002 5.407-3.14.4-5.936 1.603-8.38 3.63-1.385-1.162-2.687-2.417-3.959-3.703"/><g transform="translate(15.61 .507)"><mask id="b" fill="#fff"><use xlink:href="#a"/></mask><path fill="#FFF" d="M.045 46.404c-.013-.134.059-.229.143-.317 1.124-1.17 2.248-2.341 3.376-3.509.065-.068.166-.1.25-.15.186.183.355.384.556.547 2.47 2 5.277 3.18 8.436 3.497.1 1.804.091 3.609.006 5.413-3.034-.232-5.883-1.092-8.563-2.538-1.516-.818-2.868-1.869-4.204-2.943m102.872-15.525c.005-2.346-.39-4.184-1.109-5.61-1.98-3.936-5.22-6.217-9.406-7.269-.443-.111-.735-.054-1.059.293-1.23 1.317-2.555 2.531-4.051 3.541-.502.339-1.011.678-1.623.78-.55.09-.857-.228-.756-.779.097-.523.32-1.001.567-1.468.842-1.583 1.922-2.998 3.088-4.342.41-.473.474-.926.34-1.5-.665-2.856-1.982-5.333-4.088-7.382-4.262-4.147-10.882-4.396-15.417-.567-2.73 2.305-4.244 5.291-4.885 8.778-.075.405-.011.686.275.979.977.999 1.827 2.107 2.615 3.26.389.569.728 1.17.949 1.827.104.309.184.64-.106.906-.262.24-.56.169-.855.073-.62-.199-1.173-.53-1.72-.876-1.317-.836-2.488-1.859-3.643-2.902-.237-.214-.455-.349-.803-.275-3.472.738-6.425 2.35-8.584 5.24-2.405 3.22-3.114 6.824-1.828 10.636 1.669 4.944 5.383 7.602 10.306 8.739.372.085.649-.015.932-.269.72-.648 1.444-1.295 2.206-1.892 1.048-.822 2.117-1.622 3.4-2.056.296-.1.594-.163.848.092.253.255.186.562.101.857-.13.45-.346.864-.591 1.261-.995 1.61-2.204 3.045-3.527 4.386-.219.223-.388.42-.306.79.735 3.336 2.273 6.203 4.975 8.32 3.445 2.7 7.295 3.422 11.365 1.746 4.714-1.941 7.17-5.747 8.095-10.669.065-.347-.07-.57-.289-.807-1.054-1.147-2.035-2.356-2.86-3.684-.3-.482-.578-.98-.696-1.543-.13-.626.183-.951.807-.818.29.061.575.185.844.318 1.66.825 3.074 1.998 4.425 3.25.317.294.619.376 1.035.293 1.796-.357 3.498-.965 5.036-1.97 3.701-2.42 5.866-5.76 5.993-9.687zM96.509 9.184c.307-.017.376-.22.482-.38A9.563 9.563 0 0 0 98.366 5.6c.303-1.342 1.13-2.141 2.399-2.563 1.184-.395 2.356-.827 3.533-1.243.11-.039.225-.133.327-.006.087.11.023.228-.013.343-.389 1.237-.77 2.477-1.162 3.712-.383 1.202-1.128 1.994-2.382 2.353-1.294.372-2.603.776-3.61 1.844.305.146.415-.109.56-.225 1.601-1.28 3.944-1.309 5.5-.061 1.349 1.082 1.53 2.907.403 4.057-.724.74-2.038.883-2.907.328-.24-.153-.235-.258-.023-.452 1.182-1.085.942-2.303-.545-2.887-.625-.246-1.253-.267-1.899-.123-.326.073-.424.223-.168.493.191.204.357.427.125.687-.23.259-.47.131-.69-.048-.123-.1-.245-.249-.42-.123a.506.506 0 0 0-.196.486c.049.424.299.711.69.841.388.13.648-.099.864-.396.112-.154.096-.453.35-.44.275.013.368.289.469.503.26.558.146 1.07-.252 1.52-.429.484-.963.658-1.582.453-.574-.19-1.061-.53-1.337-1.076-.253-.5-.433-.394-.712-.034-.272.35-.573.686-.904.979-.41.364-.246.489.168.621 2.212.71 4.233 1.782 6.011 3.292 3.518 2.988 5.592 6.742 5.691 11.43.112 5.308-2.221 9.442-6.315 12.641a16.441 16.441 0 0 1-5.63 2.86c-.41.117-.392.253-.121.514.537.52 1.075 1.04 1.585 1.586.274.292.394.222.565-.095a2.329 2.329 0 0 1 1.477-1.171c.589-.162 1.165.052 1.548.562.376.503.456 1.022.106 1.58-.307.49-.406.494-.71-.01-.41-.676-1.093-.677-1.481-.007-.138.238-.135.46.038.676.191.24.378.145.574-.003.205-.155.417-.162.584.053.148.19.102.39-.058.548-.399.395-.173.536.234.618.781.157 1.523.06 2.215-.351 1.019-.605 1.148-1.727.297-2.546-.494-.474-.492-.488.115-.703 1.277-.453 2.28-.17 2.932.827.674 1.03.543 2.393-.32 3.306-1.546 1.638-4.08 1.741-5.929.248-.124-.1-.197-.336-.47-.21.042.24.252.333.413.457.929.713 1.987 1.16 3.106 1.446 1.206.308 1.973 1.057 2.355 2.22.418 1.27.811 2.548 1.213 3.823.104.327-.03.418-.331.313-1.312-.457-2.632-.895-3.933-1.384-1.031-.386-1.689-1.136-1.938-2.236-.28-1.238-.739-2.4-1.483-3.434-.088-.122-.131-.302-.373-.336.027.338.265.543.41.783 1.104 1.834 1.053 3.837-.147 5.28-1.2 1.444-3.003 1.569-4.147.287-.655-.734-.733-2.1-.175-2.901.162-.233.288-.163.415.017.42.594.968.958 1.702.75.78-.22 1.124-.874 1.321-1.608a3.246 3.246 0 0 0 .024-1.508c-.062-.3-.203-.459-.488-.19-.21.2-.435.325-.69.102-.242-.211-.138-.43.031-.637.138-.167.134-.335-.024-.485-.152-.143-.321-.265-.54-.15-.295.155-.534.373-.602.717-.07.35.144.569.39.764.162.13.503.1.47.393-.035.296-.349.37-.579.476-.543.247-1.035.087-1.45-.292-.453-.417-.606-.953-.434-1.552.168-.587.511-1.061 1.046-1.36.36-.202.35-.36.056-.628-.508-.462-.982-.96-1.473-1.44-.124-.121-.213-.346-.425-.278-.203.066-.157.306-.21.47-1.62 5.144-4.683 9.05-9.723 11.114-5.65 2.313-11.985.746-16.25-3.862a17.881 17.881 0 0 1-3.968-6.817c-.144-.451-.267-.57-.607-.162a4.381 4.381 0 0 1-.69.678c-.337.257-.276.412.041.63.52.357.846.864.954 1.494.104.614-.188 1.182-.755 1.537-.532.334-1.033.258-1.519-.096-.297-.217-.379-.38.042-.593.71-.359.8-.902.286-1.388-.155-.147-.317-.282-.525-.115-.183.146-.432.279-.317.585.082.22.161.43-.088.59-.227.145-.427.048-.603-.108-.323-.283-.447-.113-.516.216-.185.896-.082 1.743.47 2.49.665.899 1.718.942 2.408.064.372-.473.481-.317.643.123.47 1.276.22 2.315-.74 2.976-1.03.708-2.348.599-3.28-.271-1.546-1.444-1.765-3.626-.583-5.618.177-.297.474-.538.542-1.03-.49.382-.698.844-.946 1.26a8.042 8.042 0 0 0-.96 2.378c-.266 1.185-.949 2.004-2.092 2.393-1.316.447-2.644.858-3.967 1.285-.115.037-.24.096-.335-.016-.096-.112-.009-.23.038-.337.484-1.117.81-2.29 1.19-3.444.431-1.305 1.2-2.21 2.597-2.523 1.2-.268 2.329-.738 3.332-1.475.09-.066.175-.14.303-.244-.336-.13-.463.11-.632.209-1.295.765-2.642 1.171-4.14.67-1.528-.514-2.524-1.811-2.428-3.177.13-1.85 2.166-2.907 3.716-1.934.256.161.22.308-.002.455-1.133.754-1.167 2.259.52 2.936a2.91 2.91 0 0 0 1.776.148c.32-.074.496-.214.21-.532-.192-.214-.323-.453-.074-.69.248-.237.48-.09.683.112.116.116.237.245.417.151.184-.097.219-.29.207-.474-.03-.452-.272-.767-.698-.892-.423-.125-.68.145-.884.473-.31.496-.409.492-.701-.006-.317-.54-.256-1.057.111-1.53.385-.496.89-.782 1.532-.61.718.19 1.272.616 1.558 1.322.164.406.333.388.597.1.246-.269.503-.527.774-.77.365-.325.322-.474-.156-.624-3.466-1.085-6.347-3.059-8.566-5.95-4.876-6.353-3.98-15.017 2.067-20.447 1.909-1.714 4.088-2.939 6.512-3.738.56-.185.565-.232.146-.63-.469-.445-.939-.89-1.377-1.366-.29-.314-.478-.458-.74.038-.253.48-.704.77-1.212.954-.64.234-1.298.033-1.72-.52-.421-.554-.431-1.08-.052-1.69.248-.398.407-.435.638.039.359.736 1.036.782 1.467.147.124-.183.184-.358.025-.552-.15-.184-.315-.33-.566-.193-.236.128-.467.178-.642-.074-.159-.23-.024-.417.135-.592.265-.295.163-.462-.193-.535-.844-.173-1.65-.082-2.384.387-.982.627-1.037 1.805-.105 2.537.34.268.346.389-.058.56-1.253.533-2.4.274-3.07-.716-.707-1.045-.58-2.418.312-3.352 1.487-1.557 3.709-1.714 5.688-.416.224.147.393.412.845.398a6.732 6.732 0 0 0-2.055-1.344c-.62-.262-1.262-.47-1.902-.676-.842-.272-1.48-.811-1.77-1.625-.525-1.467-.957-2.967-1.418-4.456-.084-.271.066-.332.293-.25 1.382.505 2.778.972 4.136 1.535.943.391 1.535 1.148 1.757 2.18.257 1.198.68 2.332 1.375 3.35.11.16.171.38.46.378-.234-.43-.47-.84-.683-1.26-.947-1.857-.47-4.14 1.104-5.32.95-.712 2.312-.711 3.147.002.966.825 1.17 1.937.582 3.121-.154.311-.265.426-.534.067-.827-1.103-2.073-.992-2.719.222a3.165 3.165 0 0 0-.335 2.062c.062.373.18.55.534.252.221-.185.454-.302.687-.04.208.232.099.45-.083.643-.138.145-.23.294-.066.473.148.16.339.229.55.17a.952.952 0 0 0 .698-.692c.103-.371-.119-.61-.38-.825-.16-.134-.509-.127-.467-.4.043-.282.368-.346.603-.448.523-.226.996-.088 1.397.277.447.406.676.912.497 1.528-.19.652-.584 1.162-1.193 1.46-.355.173-.351.304-.08.56.545.513 1.067 1.048 1.593 1.58.433.436.485.424.658-.165 1.03-3.49 2.87-6.45 5.651-8.809a14.551 14.551 0 0 1 19.124.199c2.466 2.18 4.192 4.85 5.19 7.991.15.468.297.539.62.146.27-.327.555-.644.857-.94.284-.28.244-.444-.095-.642A2.205 2.205 0 0 1 92 8.884c-.164-.676.121-1.19.643-1.585.514-.39 1.046-.35 1.58-.023.365.223.411.39-.016.623-.695.38-.773.927-.246 1.401.16.144.331.26.536.109.194-.145.405-.31.281-.601-.1-.236-.204-.462.075-.638.231-.146.416-.026.598.124.325.266.454.093.515-.24a3.207 3.207 0 0 0-.371-2.232c-.612-1.068-1.84-1.177-2.592-.198-.315.41-.436.377-.614-.078-.526-1.34-.272-2.428.757-3.122 1.04-.702 2.42-.525 3.365.43 1.337 1.355 1.617 3.29.717 5.053-.216.424-.466.83-.719 1.277z" mask="url(#b)"/></g><path fill="#FFF" d="M44.328 47.001c-.78.832-1.712 1.47-2.663 2.077-3.086 1.97-6.702 3.078-10.356 3.31-.155-.453-.004-.972 0-1.428.013-1.346.132-2.62.254-3.964 3.347-.281 6.366-1.582 8.942-3.745 1.36 1.161 2.56 2.484 3.823 3.75m-35.6-18.618c.422-3.913 1.84-7.43 4.162-10.585.25-.34.52-.668.78-1.001 1.375 1.153 2.664 2.4 3.934 3.666-.107.145-.211.293-.322.436-1.716 2.209-2.76 4.706-3.16 7.48a42.094 42.094 0 0 1-5.395.004m21.448 1.058c-.7-.03-1.322.526-1.343 1.2-.02.624.566 1.239 1.218 1.278.67.042 1.324-.551 1.34-1.212.015-.652-.547-1.237-1.215-1.266zm-.032-2.69c2.21.01 4.014 1.792 3.996 3.95-.018 2.14-1.842 3.91-4.043 3.92-2.155.01-4.023-1.844-3.997-3.965.027-2.167 1.835-3.913 4.044-3.904zm51.061 4.217c.626.235 1.207.399 1.74.663 4.404 2.179 7.596 5.448 9.034 10.275.033.112.03.276.19.257.133-.016.167-.164.185-.285.065-.424.21-.823.367-1.219 1.144-2.881 3.053-5.173 5.447-7.071 1.334-1.058 2.785-1.928 4.437-2.405.133-.039.308-.054.334-.217.028-.165-.14-.163-.249-.191-1.773-.453-3.305-1.38-4.71-2.516-2.643-2.136-4.7-4.705-5.639-8.059-.039-.14-.035-.34-.216-.335-1.871 5.434-5.465 9.104-10.92 11.103zM80.96 47.1c.003-.905.443-1.578 1.308-1.918.292-.114.455-.273.558-.57.283-.814.907-1.227 1.73-1.306.836-.08 1.497.266 1.928.997.905 1.533 2.233 2.184 3.96 1.932.324-.047.351-.19.216-.458-1.948-3.849-4.595-7.125-7.917-9.857a29.116 29.116 0 0 0-4.608-3.112c-.137-.075-.279-.231-.437-.139-.2.117-.089.33-.061.498.107.66.134 1.332.347 1.973.222.667.507 1.23 1.198 1.584.74.377 1.056 1.099.979 1.943-.076.84-.499 1.449-1.304 1.734-.296.106-.446.278-.554.573-.322.884-1.012 1.286-1.914 1.321-.835.032-1.582-.49-1.901-1.332-.122-.32-.316-.473-.622-.59-.696-.266-1.106-.803-1.211-1.542-.117-.821.075-1.59.806-2.024 1.282-.759 1.818-1.855 1.836-3.317.016-1.273.008-1.325-1.194-.936-.696.225-1.31.54-1.695 1.258-.383.714-1.083 1.036-1.89.948-.84-.092-1.48-.516-1.75-1.37-.085-.272-.237-.438-.48-.58-1.587-.925-1.57-2.778.03-3.737.219-.132.374-.288.446-.541.234-.813.825-1.24 1.61-1.374.855-.145 1.525.212 2.04.905.587.794 1.263 1.47 2.282 1.683.37.078.555-.008.5-.414-.104-.783-.173-1.576-.424-2.328-.218-.655-.51-1.241-1.187-1.608-.762-.413-1.038-1.157-.94-2.02.09-.795.51-1.363 1.25-1.645.311-.118.493-.277.612-.597.319-.855 1.026-1.32 1.908-1.314.84.006 1.553.484 1.861 1.295a.98.98 0 0 0 .603.615c1.43.585 1.748 2.371.624 3.443-.145.14-.315.251-.472.378-1.017.823-1.602 1.843-1.535 3.204.031.626.04.66.58.374 2.117-1.12 4.044-2.51 5.81-4.127 2.643-2.424 4.864-5.182 6.508-8.393.088-.172.286-.348.134-.55-.133-.177-.337-.036-.507-.007-.95.157-1.926.218-2.781.746-.262.161-.493.329-.642.616-.42.811-1.102 1.264-2.007 1.194-.89-.068-1.552-.536-1.806-1.455-.073-.264-.26-.388-.483-.504-.747-.387-1.152-1.023-1.153-1.858-.001-.834.391-1.48 1.15-1.855a.956.956 0 0 0 .526-.613c.25-.762.803-1.2 1.586-1.318.777-.118 1.49.09 1.914.76.97 1.537 2.398 1.993 4.091 1.942.337-.01.43-.185.364-.473-.23-.995-.484-1.947-1.491-2.512-.655-.367-.963-1.046-.891-1.811.074-.794.443-1.448 1.216-1.747.376-.145.568-.359.71-.734.296-.777 1.071-1.238 1.922-1.212.875.027 1.488.464 1.814 1.272.121.301.251.514.582.626.783.266 1.213.87 1.31 1.671.098.801-.198 1.47-.858 1.957-.795.585-1.462 1.258-1.706 2.274-.12.496.022.632.503.556.833-.132 1.688-.157 2.485-.47.645-.255 1.205-.604 1.59-1.237.411-.677 1.084-.962 1.867-.879.798.085 1.419.47 1.696 1.263.11.315.266.514.587.625.899.31 1.276 1.027 1.323 1.918.045.854-.518 1.633-1.378 1.948-.288.105-.4.282-.507.536-.628 1.493-2.345 1.805-3.455.637-.25-.263-.517-.513-.747-.794-.875-1.067-2.052-1.266-3.327-1.213-.482.02-.33.265-.2.522a28.34 28.34 0 0 0 3.713 5.603c2.577 3.046 5.604 5.523 9.155 7.336.14.071.272.225.439.124.172-.105.096-.291.071-.445-.147-.938-.176-1.9-.605-2.778-.218-.446-.49-.818-.943-1.067-.718-.394-1.08-1.046-1.03-1.858.05-.85.46-1.507 1.282-1.827.323-.126.506-.309.635-.653.307-.825.972-1.218 1.827-1.261.84-.043 1.616.442 1.903 1.231.132.362.333.543.67.693 1.502.67 1.75 2.598.41 3.56-1.408 1.012-1.97 2.338-1.849 4.032.025.345.121.5.467.425.986-.215 1.941-.404 2.464-1.493.347-.722 1.093-1 1.904-.905.78.09 1.37.497 1.652 1.243.131.345.295.58.63.752.705.363 1.072.996 1.079 1.777.007.832-.39 1.48-1.137 1.866-.251.13-.41.287-.5.562-.281.864-.917 1.332-1.787 1.414-.887.084-1.534-.356-1.997-1.11-.488-.792-1.182-1.312-2.098-1.51-.412-.089-.658-.049-.57.504.167 1.038.227 2.096.717 3.059.153.301.352.518.661.67.816.404 1.26 1.079 1.209 2.001-.049.89-.497 1.53-1.364 1.812-.28.091-.409.264-.505.54a1.982 1.982 0 0 1-1.88 1.36c-.861.006-1.644-.496-1.925-1.301-.113-.324-.28-.505-.594-.615-.811-.285-1.226-.918-1.303-1.74-.075-.805.235-1.508.945-1.908 1.533-.864 1.798-2.279 1.754-3.85-.01-.4-.23-.345-.49-.21a29.588 29.588 0 0 0-6.03 4.124c-2.827 2.504-5.16 5.397-6.912 8.76-.071.136-.242.26-.136.432.104.166.293.097.445.076.658-.092 1.326-.14 1.958-.357.632-.217 1.193-.493 1.517-1.182.361-.769 1.083-1.073 1.912-1.01.805.063 1.42.478 1.71 1.248.13.343.32.507.645.639.787.319 1.323 1.163 1.28 1.966-.048.895-.489 1.538-1.321 1.86-.315.12-.473.295-.594.61-.282.736-.831 1.177-1.63 1.262-.83.088-1.574-.149-1.97-.897-.843-1.584-2.27-1.78-3.813-1.78-.274 0-.353.17-.294.407.244.99.503 1.954 1.473 2.54.702.425.967 1.134.88 1.938-.084.78-.484 1.378-1.239 1.654-.333.122-.523.3-.645.643-.279.791-1.028 1.283-1.869 1.29a1.996 1.996 0 0 1-1.917-1.31c-.107-.29-.255-.47-.546-.59-1.537-.634-1.828-2.441-.57-3.537.506-.44.952-.932 1.368-1.454a2.29 2.29 0 0 0 .425-.868c.073-.288-.04-.445-.337-.404-1.112.154-2.254.184-3.275.748-.373.207-.695.46-.962.81-1.014 1.329-2.964 1.058-3.567-.492a.892.892 0 0 0-.564-.566c-.854-.333-1.3-1.02-1.297-1.923z"/><g transform="translate(0 .507)"><mask id="d" fill="#fff"><use xlink:href="#c"/></mask><path fill="#FFF" d="M92.163 25.276c.576.034.99.37 1.316.832.383.541.581 1.16.638 1.814.03.358.188.489.523.525.711.076 1.382.29 1.952.74.935.739.944 1.694.029 2.45a3.25 3.25 0 0 1-1.82.747c-.515.042-.664.264-.712.75-.072.737-.343 1.416-.88 1.956-.72.723-1.546.691-2.193-.1a3.61 3.61 0 0 1-.8-2.002c-.034-.404-.21-.56-.597-.597a3.593 3.593 0 0 1-1.737-.648c-1.033-.72-1.066-1.78-.079-2.566.537-.428 1.169-.64 1.836-.714.397-.044.547-.213.584-.61.07-.74.34-1.415.833-1.984.288-.332.638-.554 1.107-.593M48.497 51.409c.48.04.962.073 1.443.12 1.04.1 2.078.268 3.126.246.894-.02 1.073-.394.588-1.139a16.643 16.643 0 0 1-1.493-2.907c-.165-.413-.3-.466-.694-.31-1.067.418-2.142.838-3.322.779-.32-.016-.367.173-.359.424.018.59-.05 1.173-.144 1.753-.168 1.03-.172 1.029.855 1.034zM12.915 7.533c-.032-.15-.124-.196-.26-.193-.221.007-.443.024-.663.008-1.403-.1-2.805-.215-4.21-.31-.341-.023-.725-.018-.92.32-.198.345.118.601.268.872.656 1.178 1.44 2.297 1.636 3.682.05.35.241.4.561.332.63-.131 1.263-.255 1.901-.316.47-.045.646-.2.658-.705.029-1.223.214-2.422.917-3.473.044-.066.074-.141.112-.217zm34.048.045c-.485-.05-.338.221-.237.481.463 1.19.92 2.388 1.05 3.669.049.478.198.619.67.593.844-.046 1.695-.023 2.498.299.34.136.485.041.529-.309.083-.647.232-1.271.567-1.845.427-.732.746-1.522 1.231-2.227.361-.525.177-.867-.465-.949-.563-.071-1.125.003-1.685.072-1.38.17-2.76.327-4.158.216zM13.56 52.142c.399.066.37-.119.258-.412-.523-1.381-1.004-2.777-1.123-4.267-.028-.342-.176-.445-.515-.386-1.023.18-2.045.09-3.056-.102-.33-.062-.514 0-.532.354-.047.9-.47 1.658-.855 2.44-.287.583-.632 1.125-.965 1.678-.307.511-.179.796.417.877.374.051.762.029 1.141.007 1.741-.102 3.475-.423 5.23-.189zm23.375-21.831c.01-3.831-3.08-6.922-6.933-6.933-3.797-.011-6.948 3.097-6.959 6.864a6.939 6.939 0 0 0 6.92 6.955c3.867.006 6.961-3.05 6.972-6.886zm9.324.889c-1.608-.01-3.215-.02-4.824-.02-.36-.005-.417.222-.45.511-.212 1.853-.871 3.528-1.996 5.011-.151.2-.172.35.016.522 2.589 2.37 5.105 4.827 7.643 7.254.277.265.561.534.905.702 1.584.766 4.27-.13 5.597-1.081 3.803-2.728 4.445-8.475 1.232-11.879-.983-1.042-1.968-1.011-3.29-1.008a568.64 568.64 0 0 1-4.833-.012zM28.416 46.472c.139-1.637.023-3.279.062-4.917.008-.325-.235-.373-.49-.416-1.448-.246-2.775-.803-4.027-1.57-.387-.239-.703-.812-1.134-.691-.387.11-.683.593-.99.938-1.933 2.165-4.03 4.179-6.039 6.27-.084.089-.156.184-.144.318.208 2.122-.385 4.142 1.055 5.947 1.349 1.688 3.237 2.882 5.382 3.21 2.096.32 5.929-.09 6.19-2.775.195-2.01-.039-4.266.135-6.314zm11.912-28.767a59.372 59.372 0 0 0 3.759-3.906c1.392-1.595 1.042-4.86-.255-6.527-2.897-3.72-7.73-4.289-11.193-1.833-1.163.825-1.201 1.347-1.27 3.096-.007.49-.066.834-.06 1.275.021 1.354.03 2.489-.03 4.067-.03 1.7.023 3.476-.032 5.13-.01.296.23.338.457.375 1.709.282 3.294.872 4.696 1.917.213.158.39.168.58-.033 1.114-1.189 2.293-2.316 3.348-3.561zm.125 25.084c-1.222-1.138-2.442-2.277-3.612-3.465-.248-.252-.428-.033-.623.1-1.264.861-2.645 1.448-4.15 1.698-.455.076-.637.248-.575.71.034.258.01.523.016.786.053 2.029.034 4.058.016 6.088-.015 1.68-.39 3.668.66 5.112 1 1.375 2.827 2.21 4.48 2.307 4.327.252 7.955-2.83 8.51-6.895.25-1.828-.615-2.523-1.832-3.71-.948-.926-1.92-1.828-2.89-2.731zM13.975 30.966c-1.749.03-3.598.037-5.38.05-1.403.011-2.338-.14-3.074.642-3.438 3.659-2.074 9.598 2.041 11.898 1.412.79 3.282 1.281 4.887.929.912-.2 1.412-.68 2.014-1.347.915-1.014 1.91-1.947 2.792-2.993 1.1-1.12 2.2-2.24 3.302-3.358.176-.18.238-.354.083-.589-.964-1.461-1.51-3.072-1.67-4.816-.024-.252-.125-.433-.406-.425-1.544.044-2.827-.041-4.59.01zM19.8 17.748l3.502 3.332c.173.165.36.158.547.029 1.233-.843 2.595-1.364 4.048-1.664.223-.046.36-.17.35-.417a118.274 118.274 0 0 1-.067-4.91c-.006-2.123.095-3.605.002-5.407-.042-.82.071-1.507-.477-2.183-.83-1.022-2.315-2.134-3.637-2.353-5.02-.834-8.843 2.604-9.503 6.444-.26 1.503.204 2.369 1.276 3.425 1.272 1.286 2.574 2.54 3.96 3.704zm22.745 2.139c-1.144 1.167-2.285 2.338-3.436 3.499-.199.201-.192.361-.036.578a10.36 10.36 0 0 1 1.712 3.793c.056.249.186.406.45.402 4.12-.057 8.308-.144 12.423.01.254.01.404-.147.532-.34.74-1.115 1.955-2.481 2.078-3.866.449-5.058-3.354-8.903-7.66-9.043-1.028-.034-1.591.202-2.355 1.079a88.897 88.897 0 0 0-3.708 3.888zm-24.94.069c-1.271-1.267-2.56-2.513-3.935-3.666-.55-.586-1.334-1.493-2.09-1.697-1.217-.328-2.204-.327-3.419.27-4.347 2.14-6.132 7.166-3.75 11.43.941 1.686 2.117 1.608 4.316 1.583 1.841-.006 2.896.025 5.395-.005 2.053.03 3.125.032 4.687.073.274.008.38-.165.443-.403.368-1.403.973-2.692 1.856-3.843.163-.214.184-.382-.03-.572-1.173-1.04-2.24-2.197-3.474-3.17zm41.05 2.87a9.449 9.449 0 0 1-.324 2.614c-.358 1.294-.873 2.827-1.64 3.938-.35.51-.77.707-.22 1.272 2.662 2.738 3.245 8.623 1.195 11.851-.185.291-.273.577-.235.915.12 1.072.081 2.146.016 3.22-.123 2.025.18 4 .66 5.96.277 1.121.784 2.122 1.44 3.058.407.582.775 1.185.962 1.883.142.532-.064.824-.618.822-.532-.002-1.038-.178-1.522-.362-4.599-1.749-9.387-1.995-14.226-1.86-.23.006-.425.056-.61.207-3.337 2.742-6.94 2.747-10.694 1.02a15.508 15.508 0 0 1-2.423-1.363c-.283-.198-.467-.202-.73.036-1.431 1.298-3.253 1.804-5.14 1.916-1.81.107-3.315.24-5.74-.741-.625-.253-1.191-.434-1.849-.453-3.712-.103-7.409-.034-11.066.732-1.367.287-2.659.806-3.99 1.2-.405.12-.805.278-1.234.277-.548-.002-.766-.298-.626-.82.128-.473.3-.93.596-1.322 1.983-2.622 2.463-5.67 2.46-8.848-.002-1.338-.168-2.687.033-4.009.124-.826-.145-1.365-.598-2-1.007-1.412-1.237-3.095-1.38-4.786-.196-2.292.689-4.288 1.66-6.261.205-.417.429-.829.687-1.214.178-.267.106-.396-.1-.606-1.17-1.198-2.127-2.65-2.393-4.338-.42-2.663.144-6.605 1.962-8.694.257-.296.368-.595.325-.993-.133-1.235-.011-2.472.01-3.708.038-2.133-.322-4.198-.99-6.214-.251-.759-.727-1.398-1.155-2.06-.362-.56-.74-1.11-.908-1.775C.093.7.283.433.926.458 1.56.482 2.15.717 2.732.93c4.041 1.482 8.236 1.837 12.49 1.764 1.322-.023 2.608-.086 3.914-.514 2.742-.9 5.449-.56 8.024.769.788.406 1.625.726 2.309 1.31.307.262.487.105.713-.109 1.381-1.309 3.115-2.061 4.976-2.358 1.138-.182 2.21-.261 3.403-.148 1.222.115 2.413.64 3.555 1.024 1.307.44 2.781.248 4.133.255 2.622.014 5.23-.199 7.807-.73 1.347-.279 2.629-.764 3.934-1.175.463-.146.924-.298 1.412-.308.569-.013.776.255.634.806-.107.414-.255.82-.512 1.162-2.235 2.97-2.659 6.407-2.54 9.98.045 1.315.125 2.629-.187 3.925-.049.206.078.342.177.495 1.054 1.634 1.66 3.719 1.682 5.747z" mask="url(#d)"/></g><path fill="#FFF" d="M135.508 8.706l-1.42-.869c-.891-.548-1.525-1.086-1.902-1.616s-.565-1.14-.565-1.83c0-1.035.356-1.875 1.07-2.521.712-.646 1.64-.97 2.779-.97 1.09 0 2.09.31 3 .926V3.96c-.941-.911-1.953-1.367-3.037-1.367-.61 0-1.112.142-1.504.427-.393.284-.589.648-.589 1.091 0 .394.145.763.434 1.106.289.344.753.705 1.394 1.082l1.427.85c1.592.958 2.388 2.177 2.388 3.656 0 1.054-.35 1.91-1.05 2.569-.702.658-1.612.987-2.734.987-1.289 0-2.463-.399-3.522-1.197v-2.389c1.009 1.287 2.177 1.93 3.503 1.93.586 0 1.074-.163 1.463-.491.389-.328.584-.74.584-1.233 0-.8-.573-1.559-1.72-2.276M139.927 1.051h10.903v1.675h-4.55v11.486h-1.878V2.726h-4.475V1.051M162.91 8.643l-2.106-4.76-1.953 4.76h4.06zM160.164.995h1.314l5.852 13.217h-1.912l-1.74-3.894h-5.569l-1.63 3.894h-1.92L160.163.995zM168.76 1.07h1.869V12.5h5.876v1.712h-7.745V1.07M181.756 8.37h-1.747v4.167h1.84c1.022 0 1.715-.08 2.08-.24.364-.16.656-.409.877-.747a1.96 1.96 0 0 0 .332-1.091c0-.402-.116-.768-.35-1.101-.233-.332-.565-.58-.995-.743-.43-.163-1.109-.245-2.037-.245zm-.14-5.625h-1.607v3.95h1.242c.997 0 1.705-.19 2.126-.573.42-.382.63-.878.63-1.487 0-1.26-.797-1.89-2.391-1.89zm.944 11.467h-4.42V1.07h3.42c1.077 0 1.918.146 2.522.438.605.291 1.066.693 1.384 1.204.317.51.476 1.102.476 1.773 0 1.292-.664 2.217-1.99 2.775.953.182 1.711.577 2.274 1.185.564.609.846 1.336.846 2.183 0 .671-.171 1.27-.514 1.797-.342.527-.845.956-1.509 1.289-.663.332-1.493.498-2.49.498zm13.649-5.569l-2.106-4.76-1.953 4.76h4.059zM193.463.995h1.314l5.852 13.217h-1.912l-1.74-3.894h-5.569l-1.63 3.894h-1.92L193.462.995zM212.429 1.07h1.776v13.142h-1.607l-8.727-10.121v10.121h-1.756V1.07h1.514l8.8 10.207V1.07M220.231 8.706l-1.42-.869c-.89-.548-1.524-1.086-1.901-1.616s-.565-1.14-.565-1.83c0-1.035.356-1.875 1.07-2.521.713-.646 1.64-.97 2.779-.97 1.09 0 2.09.31 2.999.926V3.96c-.94-.911-1.953-1.367-3.037-1.367-.61 0-1.111.142-1.504.427-.392.284-.588.648-.588 1.091 0 .394.144.763.433 1.106.29.344.754.705 1.395 1.082l1.427.85c1.592.958 2.388 2.177 2.388 3.656 0 1.054-.35 1.91-1.052 2.569-.7.658-1.61.987-2.732.987-1.29 0-2.464-.399-3.523-1.197v-2.389c1.01 1.287 2.177 1.93 3.504 1.93.585 0 1.073-.163 1.462-.491.39-.328.585-.74.585-1.233 0-.8-.574-1.559-1.72-2.276M142.655 23.885h1.747v13.142h-1.878V26.801l-4.013 5.08h-.346l-4.059-5.08v10.226h-1.869V23.885h1.77l4.337 5.397 4.311-5.397M156.296 23.885h1.878v7.46c0 1.01-.073 1.771-.22 2.286-.146.514-.326.942-.541 1.284a4.095 4.095 0 0 1-.79.917c-1.034.897-2.386 1.345-4.055 1.345-1.7 0-3.064-.445-4.092-1.335a4.255 4.255 0 0 1-.79-.927 4.805 4.805 0 0 1-.532-1.256c-.14-.495-.21-1.273-.21-2.333v-7.441h1.878v7.46c0 1.235.14 2.094.42 2.578.28.482.707.87 1.28 1.161.573.292 1.249.438 2.027.438 1.11 0 2.012-.292 2.71-.875.367-.314.632-.684.794-1.11.162-.427.243-1.157.243-2.192v-7.46m7.699 7.635l-1.42-.868c-.89-.548-1.525-1.087-1.901-1.617-.378-.53-.566-1.14-.566-1.83 0-1.034.357-1.874 1.07-2.52.713-.646 1.64-.97 2.78-.97 1.09 0 2.09.309 2.999.925v2.135c-.94-.91-1.953-1.366-3.037-1.366-.61 0-1.112.142-1.504.426-.392.285-.589.648-.589 1.092 0 .394.145.762.434 1.105.289.344.754.705 1.395 1.083l1.427.85c1.591.958 2.387 2.177 2.387 3.656 0 1.054-.35 1.91-1.05 2.568-.701.659-1.612.988-2.733.988-1.29 0-2.464-.399-3.523-1.197v-2.39c1.009 1.288 2.177 1.932 3.504 1.932.585 0 1.073-.165 1.462-.493.39-.328.584-.739.584-1.232 0-.8-.573-1.56-1.72-2.277M169.526 23.885h7.4v1.674h-5.531v4.008h5.344v1.684h-5.344v4.083h5.708v1.674h-7.577V23.885M188.175 23.885h1.878v7.46c0 1.01-.074 1.771-.22 2.286-.146.514-.326.942-.542 1.284a4.08 4.08 0 0 1-.789.917c-1.034.897-2.386 1.345-4.055 1.345-1.7 0-3.065-.445-4.092-1.335a4.252 4.252 0 0 1-.79-.927 4.805 4.805 0 0 1-.533-1.256c-.14-.495-.21-1.273-.21-2.333v-7.441h1.879v7.46c0 1.235.14 2.094.42 2.578.28.482.706.87 1.28 1.161.573.292 1.248.438 2.027.438 1.109 0 2.012-.292 2.71-.875.367-.314.632-.684.794-1.11.162-.427.243-1.157.243-2.192v-7.46M203.021 23.885h1.748v13.142h-1.879V26.801l-4.013 5.08h-.345l-4.06-5.08v10.226h-1.869V23.885h1.77l4.336 5.397 4.312-5.397M210.813 31.52l-1.42-.868c-.89-.548-1.524-1.087-1.9-1.617-.378-.53-.566-1.14-.566-1.83 0-1.034.356-1.874 1.07-2.52.713-.646 1.64-.97 2.779-.97 1.09 0 2.09.309 2.999.925v2.135c-.94-.91-1.953-1.366-3.036-1.366-.611 0-1.112.142-1.505.426-.392.285-.588.648-.588 1.092 0 .394.144.762.433 1.105.29.344.754.705 1.395 1.083l1.427.85c1.592.958 2.388 2.177 2.388 3.656 0 1.054-.35 1.91-1.051 2.568-.7.659-1.612.988-2.733.988-1.29 0-2.463-.399-3.522-1.197v-2.39c1.009 1.288 2.176 1.932 3.503 1.932.585 0 1.073-.165 1.462-.493.39-.328.584-.739.584-1.232 0-.8-.573-1.56-1.719-2.277m15.845-.062l-2.105-4.76-1.953 4.76h4.058zm-2.745-7.648h1.313l5.853 13.217h-1.913l-1.74-3.895h-5.568l-1.631 3.895h-1.92l5.606-13.217zM242.879 23.885h1.775v13.142h-1.607l-8.726-10.122v10.122h-1.757V23.885h1.514l8.801 10.207V23.885M251.67 25.56h-2.335v9.774h2.392c.934 0 1.66-.065 2.177-.194.517-.128.948-.291 1.294-.489.346-.198.661-.44.948-.728.922-.941 1.383-2.13 1.383-3.566 0-1.411-.474-2.562-1.42-3.453a4.559 4.559 0 0 0-1.2-.818 5.014 5.014 0 0 0-1.285-.423c-.406-.07-1.056-.104-1.953-.104zm-4.204 11.448V23.885h4.401c1.775 0 3.18.268 4.214.804 1.034.536 1.855 1.325 2.466 2.366a6.617 6.617 0 0 1 .916 3.406 6.458 6.458 0 0 1-1.943 4.637 6.307 6.307 0 0 1-2.215 1.42 6.535 6.535 0 0 1-1.355.39c-.41.067-1.196.1-2.354.1h-4.13zm26.703-6.453h4.382v5.568c-1.607.703-3.202 1.054-4.784 1.054-2.161 0-3.888-.635-5.18-1.905-1.293-1.27-1.94-2.836-1.94-4.699 0-1.963.67-3.596 2.01-4.9 1.339-1.305 3.018-1.958 5.035-1.958.735 0 1.433.08 2.094.24.66.16 1.494.454 2.503.88v1.919c-1.557-.91-3.102-1.364-4.634-1.364-1.426 0-2.628.49-3.606 1.468-.978.978-1.467 2.179-1.467 3.603 0 1.492.489 2.712 1.467 3.659.978.947 2.236 1.42 3.774 1.42.748 0 1.641-.172 2.682-.517l.177-.057V32.23h-2.513v-1.674m14.023.903l-2.105-4.76-1.954 4.76h4.059zm-2.745-7.648h1.313l5.853 13.217H290.7l-1.74-3.895h-5.568l-1.631 3.895h-1.92l5.606-13.217zM294.042 23.885h1.869v11.43h5.876v1.712h-7.745V23.885M303.422 23.885h1.869v11.43h5.877v1.712h-7.746V23.885M312.803 23.885h7.4v1.674h-5.532v4.008h5.345v1.684h-5.345v4.083h5.709v1.674h-7.577V23.885M324.856 25.484h-.56v4.148h.71c.946 0 1.596-.08 1.947-.244.352-.163.626-.409.823-.739a2.16 2.16 0 0 0 .294-1.124c0-.413-.11-.788-.327-1.124a1.75 1.75 0 0 0-.92-.71c-.396-.138-1.052-.207-1.967-.207zm-2.43 11.543V23.885h3.27c1.32 0 2.369.33 3.145.988.775.658 1.163 1.549 1.163 2.671 0 .765-.19 1.427-.57 1.985-.38.558-.925.975-1.635 1.251.417.276.825.653 1.224 1.13.398.476.959 1.307 1.681 2.492.455.746.82 1.308 1.094 1.684l.691.94h-2.224l-.57-.865a2.402 2.402 0 0 0-.11-.16l-.365-.518-.579-.96-.625-1.026c-.385-.54-.739-.969-1.06-1.288-.32-.32-.61-.55-.87-.69-.258-.141-.694-.212-1.305-.212h-.486v5.72h-1.868zM333.947 37.026h1.868V23.885h-1.868zM338.712 23.885h7.399v1.674h-5.531v4.008h5.345v1.684h-5.345v4.083h5.709v1.674h-7.577V23.885M351.511 31.52l-1.42-.868c-.89-.548-1.524-1.087-1.9-1.617-.378-.53-.566-1.14-.566-1.83 0-1.034.357-1.874 1.07-2.52.713-.646 1.64-.97 2.78-.97 1.089 0 2.089.309 2.998.925v2.135c-.94-.91-1.952-1.366-3.036-1.366-.61 0-1.112.142-1.504.426-.393.285-.589.648-.589 1.092 0 .394.145.762.434 1.105.289.344.754.705 1.394 1.083l1.428.85c1.591.958 2.387 2.177 2.387 3.656 0 1.054-.35 1.91-1.051 2.568-.7.659-1.611.988-2.733.988-1.289 0-2.463-.399-3.522-1.197v-2.39c1.01 1.288 2.177 1.932 3.504 1.932.585 0 1.073-.165 1.461-.493.39-.328.585-.739.585-1.232 0-.8-.573-1.56-1.72-2.277M131.163 46.681h10.903v1.674h-4.55v11.486h-1.878V48.355h-4.475v-1.674M146.317 48.299h-.56v4.148h.71c.947 0 1.596-.081 1.948-.244.352-.163.626-.41.822-.74.196-.328.295-.702.295-1.123 0-.414-.11-.788-.327-1.124a1.756 1.756 0 0 0-.92-.71c-.396-.138-1.052-.207-1.968-.207zm-2.429 11.542V46.7h3.27c1.32 0 2.369.329 3.144.987.776.659 1.164 1.55 1.164 2.672 0 .765-.19 1.427-.57 1.985-.38.558-.925.975-1.635 1.25.417.277.825.653 1.224 1.13.398.476.959 1.307 1.682 2.493.454.746.818 1.307 1.093 1.683l.691.941h-2.223l-.57-.866a2.276 2.276 0 0 0-.112-.16l-.364-.517-.578-.96-.625-1.026a10.19 10.19 0 0 0-1.06-1.289c-.322-.319-.612-.55-.87-.69-.26-.141-.694-.211-1.306-.211h-.486v5.72h-1.869zM163.901 46.7h1.878v7.46c0 1.009-.073 1.771-.22 2.285-.146.515-.326.943-.54 1.284a4.095 4.095 0 0 1-.79.917c-1.035.897-2.386 1.346-4.056 1.346-1.7 0-3.064-.445-4.092-1.336a4.269 4.269 0 0 1-.79-.927 4.805 4.805 0 0 1-.532-1.256c-.14-.495-.21-1.273-.21-2.332V46.7h1.878v7.46c0 1.235.14 2.094.42 2.577.28.483.707.87 1.28 1.162.573.291 1.25.437 2.028.437 1.109 0 2.012-.291 2.71-.875.367-.313.631-.683.794-1.11.161-.426.242-1.157.242-2.191V46.7m7.699 7.635l-1.42-.869c-.89-.548-1.525-1.086-1.901-1.616-.377-.53-.565-1.14-.565-1.83 0-1.034.356-1.875 1.07-2.52.712-.647 1.639-.97 2.779-.97 1.09 0 2.09.308 2.999.925v2.135c-.94-.911-1.953-1.366-3.037-1.366-.61 0-1.111.142-1.504.426-.392.284-.588.648-.588 1.092 0 .393.144.762.433 1.105.29.344.754.705 1.395 1.082l1.427.85c1.592.958 2.388 2.177 2.388 3.657 0 1.053-.35 1.91-1.051 2.568-.7.658-1.612.988-2.733.988-1.29 0-2.464-.4-3.523-1.198v-2.389c1.01 1.287 2.177 1.931 3.504 1.931.586 0 1.073-.164 1.462-.492.39-.328.584-.74.584-1.233 0-.8-.573-1.559-1.719-2.276M176.02 46.681h10.903v1.674h-4.55v11.486h-1.878V48.355h-4.475v-1.674"/><path stroke="#FFF" stroke-width="3" d="M126.782.047v60.825"/></g></svg>