<svg xmlns="http://www.w3.org/2000/svg" width="113" height="69"><g fill="#FFFFFE" fill-rule="evenodd"><path d="M.065 59.025h2.472v7.181h4.317v2.192H.065v-9.373M11.835 66.29c.363 0 .687-.068.97-.204.285-.136.525-.32.72-.555a2.44 2.44 0 0 0 .447-.829 3.28 3.28 0 0 0 .154-1.012c0-.356-.051-.693-.154-1.011a2.45 2.45 0 0 0-.447-.83 2.111 2.111 0 0 0-.72-.554 2.223 2.223 0 0 0-.97-.204c-.363 0-.687.068-.97.204a2.115 2.115 0 0 0-.72.554 2.45 2.45 0 0 0-.447.83 3.284 3.284 0 0 0-.154 1.011c0 .357.051.694.154 1.012.102.319.251.595.447.83.195.234.435.418.72.554.283.136.607.204.97.204zm0 2.333A4.946 4.946 0 0 1 9.9 68.25a4.71 4.71 0 0 1-1.536-1.026 4.613 4.613 0 0 1-1.013-1.56 5.248 5.248 0 0 1-.363-1.974c0-.712.12-1.37.363-1.974a4.62 4.62 0 0 1 1.013-1.56A4.628 4.628 0 0 1 9.9 59.138a5.03 5.03 0 0 1 1.935-.366c.699 0 1.346.122 1.942.366a4.538 4.538 0 0 1 1.536 1.018c.429.436.764.956 1.006 1.56a5.26 5.26 0 0 1 .363 1.974c0 .712-.12 1.37-.363 1.974a4.68 4.68 0 0 1-1.006 1.56c-.428.436-.94.778-1.536 1.026a4.997 4.997 0 0 1-1.942.373zM19.68 61.203h-2.863v-2.178h8.2v2.178h-2.836v7.195H19.68v-7.195M28.19 61.203h-2.863v-2.178h8.2v2.178h-2.836v7.195H28.19v-7.195M34.104 59.025h6.705v2.15h-4.232v1.447h3.478v2.024h-3.478v1.602h4.526v2.15h-6.999v-9.373M45.723 63.255c.326 0 .592-.101.797-.303.205-.2.307-.47.307-.807 0-.357-.098-.637-.293-.844-.196-.205-.47-.309-.824-.309h-1.188v2.263h1.201zm-3.617-4.23h3.855c.503 0 .957.066 1.362.197a2.87 2.87 0 0 1 1.041.583c.288.257.512.578.67.963.159.384.238.829.238 1.335 0 .618-.135 1.154-.405 1.608a3.12 3.12 0 0 1-1.076 1.09l1.998 3.597h-2.655l-1.578-3.19h-1.034v3.19h-2.416v-9.373zM52.506 64.66l-3.311-5.635h2.836l1.816 3.344 1.704-3.344h2.752l-3.325 5.621v3.752h-2.472V64.66M60.817 59.025h6.496v2.178H63.29v1.813h3.115v2.051H63.29v3.331h-2.473v-9.373M67.903 59.025h2.472v5.494c0 .516.119.937.357 1.265.237.328.63.492 1.18.492.55 0 .94-.166 1.173-.499.233-.332.35-.752.35-1.258v-5.494h2.5v5.72c0 .599-.098 1.14-.293 1.622a3.441 3.441 0 0 1-.831 1.23c-.36.337-.782.595-1.272.773a4.684 4.684 0 0 1-1.613.267c-.587 0-1.127-.09-1.62-.267a3.696 3.696 0 0 1-1.279-.766 3.359 3.359 0 0 1-.831-1.223c-.196-.482-.293-1.028-.293-1.637v-5.719M77.248 59.025h2.249l3.576 5.227v-5.227h2.445v9.373h-2.109l-3.716-5.382v5.382h-2.445v-9.373M90.365 66.206c.81 0 1.437-.232 1.88-.696.441-.464.663-1.065.663-1.806 0-.374-.052-.714-.154-1.019a2.099 2.099 0 0 0-.468-.787c-.21-.22-.473-.39-.79-.512-.316-.122-.693-.183-1.13-.183H89.36v5.002h1.005zm-3.478-7.18h3.576c.717 0 1.38.093 1.99.28.61.188 1.14.473 1.586.857a3.89 3.89 0 0 1 1.048 1.475c.251.6.377 1.307.377 2.122 0 .778-.128 1.455-.384 2.031a4.09 4.09 0 0 1-1.055 1.447 4.38 4.38 0 0 1-1.592.872 6.63 6.63 0 0 1-1.984.288h-3.562v-9.373zM96.396 59.025h6.705v2.15h-4.232v1.447h3.478v2.024h-3.478v1.602h4.525v2.15h-6.998v-9.373M107.876 66.206c.81 0 1.437-.232 1.88-.696.441-.464.662-1.065.662-1.806 0-.374-.05-.714-.153-1.019a2.103 2.103 0 0 0-.468-.787c-.21-.22-.473-.39-.79-.512-.316-.122-.693-.183-1.131-.183h-1.006v5.002h1.006zm-3.478-7.18h3.576c.717 0 1.38.093 1.99.28.61.188 1.139.473 1.586.857.447.384.796.876 1.048 1.475.251.6.377 1.307.377 2.122 0 .778-.128 1.455-.384 2.031a4.09 4.09 0 0 1-1.055 1.447 4.38 4.38 0 0 1-1.592.872 6.63 6.63 0 0 1-1.984.288h-3.562v-9.373zM15.848 4.732c0-1.292.55-2.833 1.776-2.833.856 0 1.895 1.356 3.12 4.064-1.04 1.355-2.142 3.141-3.242 5.359-1.104-2.894-1.654-5.05-1.654-6.59"/><path d="M16.071 35.014l1.586-.748c1.558 4.625 6.046 5.892 10.2 3.716l.644 1.583c-5.45 3.113-10.516 1.125-12.43-4.551zM34.7 30.966c-.834 1.664-1.934 2.633-3.612 2.633-1.898 0-2.876-1.278-3.121-2.758-1.041 1.233-2.389 1.65-3.795 1.215-1.53-.491-2.57-1.952-2.57-4.292 0-3.204 1.774-7.266 3.793-8.99l-.948-2.112c-.116.282-.974 1.97-1.389 2.669l-1.266-.55s.882-1.952 1.077-2.365c1.934-4.119 4.147-7.9 4.147-10.425 0-1.047-.722-1.77-1.327-1.786-1.898-.054-4.76 4.1-7.574 10.196-2.239 4.817-3.516 8.267-3.71 10.79l-1.308.49c-1.713-2.502-4.234-4.384-7.282-4.384-2.57 0-3.979 1.23-3.979 2.096 0 .8.796 1.107 1.225 1.23 3.732.987 5.2 4.063 6.363 8.681 1.714 6.714 6.122 11.208 12.545 11.208 6.669 0 13.035-5.788 12.73-13.546z"/><path d="M25.596 29.134a1.426 1.426 0 0 1-1.422-1.43c0-.788.637-1.43 1.422-1.43.786 0 1.42.642 1.42 1.43 0 .792-.634 1.43-1.42 1.43zm3.455-9.936c-2.641-1.226-5.859 4.625-5.859 8.566 0 2.094.918 2.884 2.018 2.877 1.395-.01 2.892-1.89 3.934-4.973 1.284-3.2 1.185-5.875-.093-6.47zm2.673 11.523a1.283 1.283 0 0 1-1.279-1.287c0-.71.574-1.286 1.279-1.286.707 0 1.279.577 1.279 1.286 0 .711-.572 1.287-1.28 1.287zm1.872-8.006c-1.346 0-3.137 2.77-3.81 5.417-.427 1.478-.536 3.924 1.3 3.924 1.925 0 3.488-2.876 3.917-5.464.367-2.215-.183-3.877-1.407-3.877zM30.608 5.14c.072 0 .125-.017.158-.053a.199.199 0 0 0 .05-.142c0-.062-.018-.108-.054-.139-.034-.03-.09-.046-.169-.046h-.218v.38h.233zm-.47-.579h.48c.078 0 .144.012.2.034a.435.435 0 0 1 .137.087.314.314 0 0 1 .08.12.362.362 0 0 1 .024.129c0 .08-.02.153-.06.219a.375.375 0 0 1-.183.147l.303.519h-.268l-.279-.487h-.197v.487h-.238V4.561zm.427 1.634a.96.96 0 0 0 .385-.076.957.957 0 0 0 .506-.53c.049-.121.073-.251.073-.392 0-.14-.024-.27-.072-.392a.957.957 0 0 0-.507-.531.936.936 0 0 0-.382-.08.938.938 0 0 0-.385.08.954.954 0 0 0-.51.53 1.056 1.056 0 0 0-.072.393c0 .14.024.27.072.393a.934.934 0 0 0 .892.606zm0 .238a1.213 1.213 0 0 1-.871-.36 1.272 1.272 0 0 1-.355-.88 1.232 1.232 0 0 1 1.23-1.24 1.194 1.194 0 0 1 .867.363 1.251 1.251 0 0 1 .355.878c0 .172-.032.334-.096.485-.064.15-.15.282-.259.394a1.216 1.216 0 0 1-.871.36zm78.5 27.105h3.876c.331-15.583-10.469-29.63-26.192-32.782-16.333-3.27-32.239 6.371-37.285 21.908h4.102a28.733 28.733 0 0 1 10.9-13.783c6.109-4.102 13.755-5.858 21.526-4.303 7.774 1.558 14.168 6.126 18.25 12.27a28.891 28.891 0 0 1 4.823 16.69M49.243 44.165h1.548v-9.128h-1.548zM51.476 40.685c0-.995.35-1.844 1.048-2.556.702-.71 1.536-1.065 2.507-1.065 1.021 0 1.883.35 2.585 1.048a3.45 3.45 0 0 1 1.052 2.534c0 1.054-.345 1.932-1.035 2.637-.693.707-1.55 1.058-2.576 1.058-1.003 0-1.852-.353-2.544-1.061-.693-.707-1.037-1.573-1.037-2.595m3.526-2.04c-.55 0-1.005.19-1.359.576-.352.385-.53.884-.53 1.496 0 .61.18 1.103.542 1.48.359.376.825.565 1.408.565.595 0 1.07-.19 1.42-.574.35-.383.526-.9.526-1.548 0-.586-.187-1.066-.564-1.437-.377-.372-.86-.559-1.443-.559M59.895 44.164V38.71h-1.04v-1.422h1.04v-2.227h1.593v2.227h3.304v1.422h-3.304v5.454h-1.593"/><path d="M63.813 44.164V38.71H62.77v-1.422h1.043v-2.227h1.591v2.227h1.063v1.422h-1.063v5.454h-1.591M68.346 41.226c.046.492.24.883.579 1.17.343.288.784.433 1.32.433.352 0 .669-.075.954-.224.28-.151.504-.364.667-.644h1.726c-.287.746-.724 1.329-1.313 1.751-.585.42-1.258.63-2.018.63-1.003 0-1.847-.354-2.539-1.062-.69-.707-1.035-1.56-1.035-2.557 0-1.008.345-1.87 1.04-2.584.696-.718 1.518-1.075 2.474-1.075 1.022 0 1.886.36 2.585 1.077.698.72 1.047 1.622 1.047 2.702 0 .106 0 .184-.002.238-.003.05-.004.1-.01.145h-5.475zm3.764-1.267c-.126-.462-.352-.813-.678-1.058-.329-.245-.734-.367-1.219-.367a1.82 1.82 0 0 0-1.144.398 1.856 1.856 0 0 0-.675 1.027h3.716zm5.525-1.29c-.605.048-1.028.207-1.275.477-.242.269-.363.77-.363 1.502v3.517h-1.594v-6.877h1.493v.785c.244-.31.502-.535.773-.679.273-.14.591-.216.966-.219v1.493M78.283 37.138h1.683l1.676 4.952 1.93-4.952h1.679l-3.788 9.252h-1.66l.955-2.419-2.475-6.833M50.81 24.365v3.008c.238-.313.505-.543.805-.693.297-.15.64-.223 1.033-.223.852 0 1.508.267 1.972.795.46.533.692 1.292.692 2.277v3.963h-1.614v-3.55c0-.656-.118-1.141-.348-1.455-.233-.315-.589-.472-1.067-.472-.529 0-.906.187-1.14.565-.228.376-.343 1.027-.343 1.953v2.959h-1.55v-9.127h1.56m6.811 6.187c.046.493.24.882.582 1.171.343.288.781.43 1.317.43a2 2 0 0 0 .954-.225 1.63 1.63 0 0 0 .665-.64h1.727c-.286.745-.723 1.328-1.308 1.749a3.384 3.384 0 0 1-2.019.632c-1.005 0-1.85-.354-2.544-1.061a3.544 3.544 0 0 1-1.035-2.56c0-1.006.35-1.867 1.044-2.584.694-.717 1.518-1.074 2.471-1.074 1.024 0 1.889.357 2.584 1.077.702.72 1.052 1.62 1.052 2.703 0 .105-.002.184-.006.235 0 .053-.004.102-.007.147h-5.477zm3.763-1.267c-.126-.461-.353-.815-.677-1.059-.329-.244-.733-.368-1.217-.368a1.81 1.81 0 0 0-1.145.401 1.836 1.836 0 0 0-.675 1.026h3.714zm5.617-1.293c-.605.05-1.028.21-1.272.48s-.367.77-.367 1.502v3.518h-1.591v-6.88h1.492v.786c.243-.309.502-.535.773-.679.269-.141.594-.215.965-.218v1.49m.803-2.092h1.547v-1.534h-1.547v1.534zm0 7.593h1.547v-6.88h-1.547v6.88zM71.387 33.492v-5.455H70.11v-1.424h1.277v-2.227h1.591v2.227h1.358v1.424h-1.358v5.455h-1.591M80.113 33.492l.024-.96a2.271 2.271 0 0 1-.875.842c-.35.182-.78.273-1.279.273-1.015 0-1.86-.348-2.542-1.044-.678-.697-1.02-1.56-1.02-2.583 0-1.01.335-1.86 1.008-2.55.673-.69 1.51-1.035 2.516-1.035a2.7 2.7 0 0 1 1.203.264 3 3 0 0 1 .99.82l-.04-.906h1.557v6.879h-1.542zm-4.053-3.509c0 .588.196 1.076.586 1.46.393.386.883.578 1.474.578.538 0 1.001-.192 1.387-.581.386-.389.579-.847.579-1.381 0-.58-.194-1.064-.586-1.455-.391-.394-.874-.589-1.455-.589-.553 0-1.022.189-1.406.57-.388.379-.58.843-.58 1.398zm12.107-3.37h1.44v5.74c0 1.193-.32 2.131-.956 2.812-.638.678-1.505 1.02-2.605 1.02-.828 0-1.519-.198-2.078-.586-.561-.393-.97-.97-1.22-1.73h1.546c.168.315.404.557.716.726.31.168.667.255 1.078.255.601 0 1.103-.222 1.508-.659.402-.437.604-1 .604-1.69v-.086c-.317.37-.668.645-1.063.827a3.08 3.08 0 0 1-1.31.271c-.992 0-1.827-.343-2.495-1.026-.672-.685-1.005-1.529-1.005-2.526 0-.985.33-1.82.992-2.503.663-.682 1.48-1.023 2.452-1.023.488 0 .932.09 1.328.27.397.18.766.456 1.101.832l-.033-.924zm-4.266 3.318c0 .6.2 1.1.608 1.506.407.405.908.606 1.499.606.612 0 1.126-.199 1.538-.596.416-.398.621-.878.621-1.443 0-.606-.2-1.113-.609-1.517-.404-.404-.912-.606-1.525-.606-.603 0-1.11.195-1.519.588-.411.392-.613.879-.613 1.462zm7.995.62c.047.494.238.883.582 1.172.341.288.783.43 1.316.43.354 0 .671-.074.956-.225.281-.146.504-.362.665-.64h1.727c-.286.745-.723 1.328-1.308 1.749a3.38 3.38 0 0 1-2.02.632c-1.004 0-1.851-.354-2.541-1.061-.692-.709-1.034-1.56-1.034-2.56 0-1.006.345-1.867 1.039-2.584.695-.717 1.518-1.074 2.474-1.074 1.023 0 1.886.357 2.583 1.077.699.72 1.05 1.62 1.05 2.703 0 .105 0 .184-.004.235a3.112 3.112 0 0 1-.009.147h-5.476zm3.763-1.266c-.125-.461-.35-.815-.676-1.059-.329-.244-.734-.368-1.217-.368a1.81 1.81 0 0 0-1.145.401 1.844 1.844 0 0 0-.674 1.026h3.712zm-3.97 8v1.425h-1.15v5.456h-1.55V38.71h-.807v-1.425h.766v-.188c0-.73.199-1.272.597-1.632.397-.36 1.002-.539 1.81-.539.032 0 .084.003.162.006.074.003.132.005.173.005v1.437h-.13c-.361 0-.618.06-.768.181-.152.122-.227.327-.227.617v.113h1.125m.762 0h1.594v3.17c0 .888.105 1.497.32 1.83.213.333.576.499 1.089.499.53 0 .91-.188 1.14-.565.233-.376.35-1.029.35-1.956v-2.978h1.57v6.881h-1.57v-.75a2.358 2.358 0 0 1-.804.697 2.242 2.242 0 0 1-1.03.228c-.853 0-1.509-.264-1.97-.795-.46-.535-.69-1.296-.69-2.285v-3.976m8.389 0v.77c.231-.315.49-.547.78-.697a2.117 2.117 0 0 1 1.001-.228c.479 0 .895.094 1.25.28.356.19.655.471.893.847.158.253.275.54.344.86.07.32.102.782.102 1.392v3.657h-1.567v-3.06c0-.935-.105-1.57-.312-1.908-.204-.34-.56-.509-1.06-.509-.51 0-.88.189-1.104.565-.226.375-.338 1.028-.338 1.952v2.96h-1.505v-6.88h1.516M113 35.036v9.129h-1.548l.037-.755c-.297.314-.62.549-.969.702-.35.153-.738.228-1.162.228-.983 0-1.804-.35-2.473-1.054-.67-.703-1.005-1.566-1.005-2.589 0-.995.336-1.842 1.012-2.54.671-.7 1.489-1.05 2.453-1.05.416 0 .8.07 1.146.21.346.14.681.362.998.662-.01-.084-.02-.176-.026-.27a6.697 6.697 0 0 1-.01-.44v-2.233h1.546zm-3.468 3.652c-.584 0-1.073.196-1.46.59-.387.398-.582.88-.582 1.45 0 .577.193 1.06.576 1.45.383.389.862.583 1.435.583.561 0 1.025-.193 1.396-.574.37-.384.555-.86.555-1.435 0-.594-.18-1.087-.549-1.478a1.797 1.797 0 0 0-1.371-.586z"/></g></svg>