<svg xmlns="http://www.w3.org/2000/svg" width="29" height="20"><path fill="#FFF" d="M27.767 1.927C26.981.524 26.137.265 24.39.167 22.642.07 18.286 0 14.5 0c-3.786 0-8.156.05-9.893.165-1.736.117-2.59.364-3.382 1.76C.433 3.322 0 5.744 0 10v.016c0 4.233.417 6.666 1.227 8.053.81 1.387 1.648 1.658 3.382 1.776 1.735.119 6.105.155 9.891.155 3.786 0 8.156-.06 9.887-.16 1.731-.1 2.592-.373 3.379-1.776.82-1.388 1.232-3.819 1.232-8.053V10c.002-4.256-.411-6.67-1.23-8.073zM10.875 15.455V4.545L19.938 10l-9.063 5.455z"/></svg>